<svg xmlns="http://www.w3.org/2000/svg" version="1.1" xmlns:xlink="http://www.w3.org/1999/xlink" xmlns:svgjs="http://svgjs.dev/svgjs" width="1000" height="750" viewBox="0 0 1000 750"><rect width="1000" height="750" fill="#ffffff"></rect><g transform="matrix(0.5191111111111111,0,0,0.5191111111111111,240.4444444444445,83)"><svg viewBox="0 0 320 360" data-background-color="#ffffff" preserveAspectRatio="xMidYMid meet" height="1125" width="1000" xmlns="http://www.w3.org/2000/svg" xmlns:xlink="http://www.w3.org/1999/xlink"><g id="tight-bounds" transform="matrix(1,0,0,1,0,0)"><svg viewBox="0 0 320 360" height="360" width="320"><g><svg></svg></g><g><svg viewBox="0 0 320 360" height="360" width="320"><g><path d="M20.961 227.22l3.726 4.658-1.863-6.056c-0.466-2.795-3.726 0.466-1.863 1.398M25.153 224.425c1.397 2.329 2.795 4.658 2.795 6.987 0 3.261 2.795 4.658 5.123 5.589-3.261-3.726-5.124-13.974-7.918-12.576M204.017 26.929c7.918 0 15.371-0.932 23.756 0.931 20.495 5.124 37.729 15.371 49.374 29.811l32.606 52.169c1.397 13.042 4.192 27.482 3.726 43.319 3.261 0 2.795-4.658 6.521-5.59-3.726 9.316-5.59 20.961-6.521 34.469-2.329-7.453 0-18.632 0.466-24.687-3.261 5.124-5.124 1.397-5.124-0.932 0.466-3.726-1.397-3.261-2.795-4.658-5.124-4.658-8.384-9.782-12.11-17.7 2.329-6.055 2.795-14.905-4.658-19.563-2.329-1.397-5.124-3.726-6.521-7.453-1.863-5.124-5.124-11.179-4.193-19.097 0.466-2.329-6.987 5.124-11.179 1.863-18.166-12.576-36.332-27.016-58.224-39.127-11.645 0-20.029-4.192-24.221-9.316-3.726-4.658-0.932-10.713 4.658-11.179 3.261 0 6.987-0.932 9.782 0.932 0.466-1.863 2.329-4.192 4.657-4.192M157.904 16.215l0.932 0.466c4.658 0.932 6.987 7.453 12.11 5.124 0 3.261 0.466 6.521-0.466 8.85-1.397 3.726-5.59 3.726-8.85 3.726-31.208-1.863-49.374 11.179-68.471 22.358-5.124 3.261-10.713 5.59-14.906 9.782-20.029 18.632-41.921 35.866-47.045 70.335l-4.192 38.195c-0.466 4.192-5.124 8.384-4.192 13.508l3.26 22.824c-3.261-3.261-5.124 0.932-4.192 2.795 0.466 1.397 2.329 6.055 5.124 1.863 3.726 6.987 7.453 20.495 12.576 26.55 15.837 18.632 36.332 35.4 53.101 52.169 4.192-0.932 7.453-0.932 8.384-3.727 1.397 2.795-1.397 5.59-3.726 6.056 7.453 4.658 15.837 8.85 27.016 9.781 14.44 0.932 27.948 3.261 40.524 6.522 6.521-1.863 13.042-2.795 20.029-3.261 2.329 0 3.726-3.726 6.521-4.658l0.466-4.658c2.795 4.192 2.329-1.397 0.466-4.192 3.261 2.795 4.192 5.124 5.589 6.987 0-1.397 3.726-6.521 3.727-0.466l0.931-6.055c1.397-0.932 1.863 5.124 3.261 0.931 1.397-4.192 4.192-0.932 6.987-2.329-0.932 1.863-0.466 5.59 2.794 3.261l3.727-3.261c2.329 5.59 6.055 3.261 7.918 2.329 20.495-13.042 40.99-28.413 60.553-43.784l-0.466 6.055 2.329-7.453c2.329 2.329 4.192 0.466 5.124-0.931 2.795-4.658 6.521-9.316 12.577-13.508-7.453 20.029-16.303 35.866-27.482 48.908l-4.658 5.59c0 3.261-0.932 7.453-4.658 7.918-1.863 0.466-5.59-0.932-8.384 1.863-1.397 1.863 3.261 5.59-0.466 2.795-3.261-2.329-6.521 0-10.248 0.932-2.795 0.932 1.863 3.726 2.795 5.589 0.932 1.863 1.863 3.726 1.398 6.056l-5.124-5.59c-6.055 3.261-9.782 9.316-14.906 13.974-2.329 1.863-1.397 5.124-1.397 7.918-3.261 0-6.987-0.932-8.85 0.932-1.397 1.863-0.932 4.658-0.932 7.453-4.658-0.466-5.124-7.453-9.315-6.056-4.192 0.932-8.85 1.397-12.577 3.727 2.795 5.59-4.658 2.329-3.726 3.26-6.987-4.192-13.042-7.453-20.495-4.658-15.837-5.124-35.4-2.795-49.84-0.931 0-2.329 0.466-4.658-0.466-5.124-0.932 2.329-3.726 1.397-3.26 1.397-8.85-6.055-17.7-9.782-27.016-14.905-8.384 0.932-16.303-3.261-18.632-5.59-6.521-6.055-13.974-2.795-20.029-4.192-13.042-3.261-17.7-16.769-19.098-26.084-0.932-4.658-4.658-6.521-6.055-6.056-6.055-19.563-15.371-37.263-22.824-55.429-1.863-4.658-1.397-9.316-1.397-14.44 2.329 0.932 4.658 0.466 4.192-2.794-2.329-15.371-7.918-27.016-13.974-38.195 3.261-15.837 3.726-34.469 11.179-48.443 6.521-12.576 18.632-19.098 27.016-29.811 2.795-3.726 2.795-8.85 5.59-12.11 9.316-9.316 18.632-19.098 28.879-27.482 4.658-3.726 10.247 0 17.234-1.397 2.329-8.384 11.645-15.837 20.495-13.508 3.726 0.932 11.179-8.85 13.508-9.782 3.726-1.397 1.863 3.726 1.863 6.987 8.85-6.987 20.961-10.713 32.14-14.906" fill="#e56d90" fill-rule="nonzero" stroke="none" stroke-width="1" stroke-linecap="butt" stroke-linejoin="miter" stroke-miterlimit="10" stroke-dasharray="" stroke-dashoffset="0" font-family="none" font-weight="none" font-size="none" text-anchor="none" style="mix-blend-mode: normal" data-fill-palette-color="tertiary"></path></g><g transform="matrix(1,0,0,1,64,159.88798194699982)"><svg viewBox="0 0 192 40.22403610600039" height="40.22403610600039" width="192"><g><svg viewBox="0 0 192 40.22403610600039" height="40.22403610600039" width="192"><g><svg viewBox="0 0 192 40.22403610600039" height="40.22403610600039" width="192"><g><svg viewBox="0 0 192 40.22403610600039" height="40.22403610600039" width="192"><g id="textblocktransform"><svg viewBox="0 0 192 40.22403610600039" height="40.22403610600039" width="192" id="textblock"><g><svg viewBox="0 0 192 40.22403610600039" height="40.22403610600039" width="192"><g transform="matrix(1,0,0,1,0,0)"><svg width="192" viewBox="0.16 -32.16 218.21 45.8" height="40.22403610600039" data-palette-color="#e56d90"><path d="M1.96 1.64L1.96 1.64Q1.96 4.6 5.08 5.2L5.08 5.2Q5.68 5.32 6.44 5.32L6.44 5.32Q11.44 5.32 14.36 2.1 17.28-1.12 17.28-6L17.28-6Q17.28-7.92 16.58-9.54 15.88-11.16 14.84-12.22 13.8-13.28 12.58-14.36 11.36-15.44 10.32-16.32 9.28-17.2 8.58-18.44 7.88-19.68 7.88-21.08L7.88-21.08Q7.88-24.76 11.18-27.86 14.48-30.96 18.28-30.96L18.28-30.96Q19.04-30.96 19.4-30.4 19.76-29.84 19.76-29.28L19.76-29.28 19.72-28.76Q19.44-28.92 18.32-28.92L18.32-28.92Q15.76-28.92 13.36-26.52 10.96-24.12 10.96-20.96L10.96-20.96Q10.96-19.68 11.66-18.46 12.36-17.24 13.4-16.32 14.44-15.4 15.64-14.26 16.84-13.12 17.88-12.02 18.92-10.92 19.62-9.34 20.32-7.76 20.32-6L20.32-6Q20.32-1.16 16.32 2.6 12.32 6.36 6.44 6.36L6.44 6.36Q1.48 6.36 0.16 3.16L0.16 3.16Q-0.88 0.52 0.96-2.68 2.8-5.88 6.28-7L6.28-7Q7.56-7.4 8.56-7.4 9.56-7.4 9.94-7.06 10.32-6.72 10.44-6L10.44-6Q6.68-6 4-2.96L4-2.96Q1.96-0.68 1.96 1.64ZM20.52-20.48L20.52-20.48Q20.52-20.28 20.14-20.28 19.76-20.28 19.44-20.44 19.12-20.6 19.12-20.88L19.12-20.88Q19.12-24.96 20.04-27.44 20.96-29.92 22.48-29.92L22.48-29.92Q22.88-29.92 23.16-29.64 23.44-29.36 23.44-28.92L23.44-28.92Q21.64-27.12 20.84-23.52L20.84-23.52Q20.52-22.08 20.52-20.48ZM27.48 0L27.48 0Q24.2 0 24.2-5.16L24.2-5.16Q24.2-8.24 25.72-11.92L25.72-11.92Q27.84-17.08 31.28-18.96L31.28-18.96Q32.76-19.76 34.04-19.76 35.32-19.76 36.06-19.2 36.8-18.64 37-18.08L37-18.08 37.24-17.56Q37.12-16.88 36.56-16.88L36.56-16.88Q35.92-16.88 35.82-17.18 35.72-17.48 35.6-17.7 35.48-17.92 35.04-18.3 34.6-18.68 34.04-18.68L34.04-18.68Q31.44-18.68 29.32-14L29.32-14Q26.92-8.6 26.92-3.84L26.92-3.84Q26.92-1.44 27.88-1.44L27.88-1.44Q28.64-1.44 30.02-3.14 31.4-4.84 32.92-7.4L32.92-7.4Q35.56-11.8 37.2-15.04L37.2-15.04Q38.56-17.92 40-17.92L40-17.92Q40.76-17.92 40.76-17L40.76-17Q40.4-16.24 39.84-14.84 39.28-13.44 38.36-9.28 37.44-5.12 37.44-1 37.44 3.12 38.68 3.12L38.68 3.12Q39.16 3.12 39.56 2.7 39.96 2.28 40.28 1.44L40.28 1.44Q40.4 1 40.84 1L40.84 1Q41 1 41.08 1.12 41.16 1.24 41.08 1.52 41 1.8 40.8 2.3 40.6 2.8 39.94 3.64 39.28 4.48 38.56 4.48L38.56 4.48Q36.88 4.48 35.98 2.28 35.08 0.08 35.08-2.92 35.08-5.92 35.52-8.68L35.52-8.68 35.12-8.68Q30.04 0 27.48 0ZM46.59 0L46.59 0Q43.23 0 43.23-5.16L43.23-5.16Q43.23-8.16 44.76-11.76L44.76-11.76Q46.84-16.8 50.23-18.6L50.23-18.6Q51.72-19.4 52.91-19.4 54.12-19.4 54.75-18.98 55.39-18.56 55.59-18.12L55.59-18.12 55.8-17.68Q55.67-17 55.08-17 54.48-17 54.22-17.66 53.95-18.32 52.99-18.32L52.99-18.32Q50.39-18.32 48.35-13.72L48.35-13.72Q45.99-8.52 45.99-3.88L45.99-3.88Q45.99-1.44 46.99-1.44L46.99-1.44Q47.8-1.44 49.34-3.42 50.88-5.4 52.52-8.24L52.52-8.24Q54.75-12.16 56.48-15.4L56.48-15.4Q57.91-21.64 59.98-26.3 62.03-30.96 63.39-30.96L63.39-30.96Q64.08-30.96 64.08-30.28L64.08-30.28Q63.11-28.2 61.81-24.6 60.52-21 59.61-17.74 58.72-14.48 57.98-9.96 57.23-5.44 57.23-1.44L57.23-1.44Q57.23 4.52 59.84 4.52L59.84 4.52Q60.84 4.52 61.7 3.66 62.55 2.8 62.91 1.96L62.91 1.96Q63.11 1.52 63.64 1.72L63.64 1.72Q63.84 1.8 63.8 1.96L63.8 1.96Q63.55 2.48 63.2 3.16 62.84 3.84 61.77 4.84 60.72 5.84 59.63 5.84L59.63 5.84Q54.88 5.84 54.88-3.12L54.88-3.12Q54.88-6.28 55.44-9.88L55.44-9.88 54.91-9.88Q49.27 0 46.59 0ZM63.75-3.4L63.75-3.4Q63.75-9.32 64.97-13.96 66.19-18.6 68.07-18.6L68.07-18.6Q68.99-18.6 68.99-17.6L68.99-17.6Q68.59-16.56 67.99-14.84 67.39-13.12 66.41-8.62 65.43-4.12 65.43-0.6L65.43-0.6Q65.43-0.04 64.83-0.04L64.83-0.04Q63.75-0.04 63.75-3.4ZM69.59-23.04L69.11-22.36Q68.27-22.36 68.27-23.96L68.27-23.96Q68.27-24.92 68.79-25.98 69.31-27.04 70.27-27.04L70.27-27.04Q71.07-27.04 71.07-26.12L71.07-26.12Q71.07-25.2 69.59-23.04L69.59-23.04ZM74.79 0L74.79 0Q71.51 0 71.51-5.16L71.51-5.16Q71.51-8.24 73.03-11.92L73.03-11.92Q75.15-17.08 78.59-18.96L78.59-18.96Q80.07-19.76 81.35-19.76 82.63-19.76 83.37-19.2 84.11-18.64 84.31-18.08L84.31-18.08 84.55-17.56Q84.43-16.88 83.87-16.88L83.87-16.88Q83.23-16.88 83.13-17.18 83.03-17.48 82.91-17.7 82.79-17.92 82.35-18.3 81.91-18.68 81.35-18.68L81.35-18.68Q78.75-18.68 76.63-14L76.63-14Q74.23-8.6 74.23-3.84L74.23-3.84Q74.23-1.44 75.19-1.44L75.19-1.44Q76.27-1.44 78.65-4.96 81.03-8.48 82.87-12L82.87-12 84.75-15.52Q85.95-17.96 87.27-17.96L87.27-17.96Q88.11-17.96 88.11-17L88.11-17Q87.59-15.88 86.67-12.7 85.75-9.52 85.15-6.78 84.55-4.04 84.05-0.04 83.55 3.96 83.55 8.12 83.55 12.28 85.03 12.28L85.03 12.28Q85.47 12.28 85.93 11.9 86.39 11.52 86.53 11.52 86.67 11.52 86.75 11.62 86.83 11.72 86.77 11.92 86.71 12.12 86.53 12.4 86.35 12.68 85.79 13.16 85.23 13.64 84.71 13.64L84.71 13.64Q81.35 13.64 81.35 5.88L81.35 5.88Q81.35-0.92 82.79-8.68L82.79-8.68 82.43-8.68Q77.35 0 74.79 0ZM104.63 3L104.63 3Q105.11 3 105.53 2.58 105.95 2.16 106.31 1.28L106.31 1.28Q106.35 0.92 106.79 0.92 107.23 0.92 107.13 1.28 107.03 1.64 106.81 2.16 106.59 2.68 105.89 3.54 105.19 4.4 104.47 4.4L104.47 4.4Q102.87 4.4 101.99 2.4L101.99 2.4Q101.07 0.4 101.07-2.54 101.07-5.48 101.51-8.6L101.51-8.6 101.15-8.6Q96.31-0.16 93.71-0.16L93.71-0.16Q90.63-0.16 90.63-4.86 90.63-9.56 92.63-14.24L92.63-14.24Q94.83-19.4 96.51-19.4L96.51-19.4Q97.23-19.4 97.23-18.52L97.23-18.52Q95.55-14.08 94.35-9.88 93.15-5.68 93.15-3.62 93.15-1.56 94.11-1.56L94.11-1.56Q94.79-1.56 96.13-3.2 97.47-4.84 98.87-7.2L98.87-7.2Q101.87-12.28 103.45-15.84 105.03-19.4 106.71-19.4L106.71-19.4Q107.51-19.4 107.51-18.52L107.51-18.52Q104.95-13.44 103.87-6.4L103.87-6.4Q103.43-3.6 103.43-0.92L103.43-0.92Q103.43 3 104.63 3ZM115.51 5.84L115.51 5.84Q113.19 5.84 112.09 3.4 110.99 0.96 110.99-3.92 110.99-8.8 112.43-15.48 113.87-22.16 115.81-26.56 117.75-30.96 119.19-30.96L119.19-30.96Q119.87-30.96 119.87-30.16L119.87-30.16Q119.03-28.24 117.75-24.38 116.47-20.52 115.61-17.24 114.75-13.96 114.05-9.56 113.35-5.16 113.35-2.02 113.35 1.12 113.97 2.82 114.59 4.52 115.67 4.52L115.67 4.52Q116.59 4.52 117.43 3.66 118.27 2.8 118.63 1.96L118.63 1.96Q118.83 1.52 119.35 1.72L119.35 1.72Q119.55 1.8 119.45 2.06 119.35 2.32 119.13 2.72 118.91 3.12 118.35 3.96L118.35 3.96Q117.15 5.84 115.51 5.84ZM132.78 1.64L132.78 1.64Q132.78 4.6 135.9 5.2L135.9 5.2Q136.5 5.32 137.26 5.32L137.26 5.32Q142.26 5.32 145.18 2.1 148.1-1.12 148.1-6L148.1-6Q148.1-7.92 147.4-9.54 146.7-11.16 145.66-12.22 144.62-13.28 143.4-14.36 142.18-15.44 141.14-16.32 140.1-17.2 139.4-18.44 138.7-19.68 138.7-21.08L138.7-21.08Q138.7-24.76 142-27.86 145.3-30.96 149.1-30.96L149.1-30.96Q149.86-30.96 150.22-30.4 150.58-29.84 150.58-29.28L150.58-29.28 150.54-28.76Q150.26-28.92 149.14-28.92L149.14-28.92Q146.58-28.92 144.18-26.52 141.78-24.12 141.78-20.96L141.78-20.96Q141.78-19.68 142.48-18.46 143.18-17.24 144.22-16.32 145.26-15.4 146.46-14.26 147.66-13.12 148.7-12.02 149.74-10.92 150.44-9.34 151.14-7.76 151.14-6L151.14-6Q151.14-1.16 147.14 2.6 143.14 6.36 137.26 6.36L137.26 6.36Q132.3 6.36 130.98 3.16L130.98 3.16Q129.94 0.52 131.78-2.68 133.62-5.88 137.1-7L137.1-7Q138.38-7.4 139.38-7.4 140.38-7.4 140.76-7.06 141.14-6.72 141.26-6L141.26-6Q137.5-6 134.82-2.96L134.82-2.96Q132.78-0.68 132.78 1.64ZM151.34-20.48L151.34-20.48Q151.34-20.28 150.96-20.28 150.58-20.28 150.26-20.44 149.94-20.6 149.94-20.88L149.94-20.88Q149.94-24.96 150.86-27.44 151.78-29.92 153.3-29.92L153.3-29.92Q153.7-29.92 153.98-29.64 154.26-29.36 154.26-28.92L154.26-28.92Q152.46-27.12 151.66-23.52L151.66-23.52Q151.34-22.08 151.34-20.48ZM158.3 0L158.3 0Q155.02 0 155.02-5.16L155.02-5.16Q155.02-8.24 156.54-11.92L156.54-11.92Q158.66-17.08 162.1-18.96L162.1-18.96Q163.58-19.76 164.86-19.76 166.14-19.76 166.88-19.2 167.62-18.64 167.82-18.08L167.82-18.08 168.06-17.56Q167.94-16.88 167.38-16.88L167.38-16.88Q166.74-16.88 166.64-17.18 166.54-17.48 166.42-17.7 166.3-17.92 165.86-18.3 165.42-18.68 164.86-18.68L164.86-18.68Q162.26-18.68 160.14-14L160.14-14Q157.74-8.6 157.74-3.84L157.74-3.84Q157.74-1.44 158.7-1.44L158.7-1.44Q159.46-1.44 160.84-3.14 162.22-4.84 163.74-7.4L163.74-7.4Q166.38-11.8 168.02-15.04L168.02-15.04Q169.38-17.92 170.82-17.92L170.82-17.92Q171.58-17.92 171.58-17L171.58-17Q171.22-16.24 170.66-14.84 170.1-13.44 169.18-9.28 168.26-5.12 168.26-1 168.26 3.12 169.5 3.12L169.5 3.12Q169.98 3.12 170.38 2.7 170.78 2.28 171.1 1.44L171.1 1.44Q171.22 1 171.66 1L171.66 1Q171.82 1 171.9 1.12 171.98 1.24 171.9 1.52 171.82 1.8 171.62 2.3 171.42 2.8 170.76 3.64 170.1 4.48 169.38 4.48L169.38 4.48Q167.7 4.48 166.8 2.28 165.9 0.08 165.9-2.92 165.9-5.92 166.34-8.68L166.34-8.68 165.94-8.68Q160.86 0 158.3 0ZM186.38-12.44L186.38-12.44Q187.7-14.56 187.7-16.42 187.7-18.28 186.54-18.28L186.54-18.28Q185.14-18.28 183.36-15.82 181.58-13.36 180.2-10.24 178.82-7.12 177.86-4.46 176.9-1.8 176.9-1.24L176.9-1.24Q176.86-0.76 176.34-0.76L176.34-0.76Q175.14-0.76 175.14-3.96L175.14-3.96Q175.14-10.32 176.42-16.74 177.7-23.16 179.46-27.02 181.22-30.88 182.74-30.88L182.74-30.88Q183.38-30.88 183.38-30.24L183.38-30.24Q181.26-25.56 179.7-18.84L179.7-18.84Q178.42-13.64 177.54-7.68L177.54-7.68 177.86-7.68Q182.42-19.4 186.98-19.4L186.98-19.4Q189.82-19.4 189.82-16.16L189.82-16.16Q189.82-14.08 188.28-11.76 186.74-9.44 184.38-8.68L184.38-8.68Q184.86-8.24 186.34-3.2L186.34-3.2Q186.86-1.4 187.78 0.08 188.7 1.56 189.76 1.56 190.82 1.56 191.34 0.8L191.34 0.8Q191.58 0.8 191.58 1 191.58 1.2 191.38 1.6L191.38 1.6Q190.5 2.8 189.22 2.92L189.22 2.92Q187.58 2.92 186.14 1.24 184.7-0.44 183.9-2.44 183.1-4.44 182.4-6.42 181.7-8.4 181.54-8.64L181.54-8.64Q181.26-8.84 181.18-9.12L181.18-9.12Q184.34-9.12 186.38-12.44ZM193.33-3.4L193.33-3.4Q193.33-9.32 194.55-13.96 195.77-18.6 197.65-18.6L197.65-18.6Q198.57-18.6 198.57-17.6L198.57-17.6Q198.17-16.56 197.57-14.84 196.97-13.12 195.99-8.62 195.01-4.12 195.01-0.6L195.01-0.6Q195.01-0.04 194.41-0.04L194.41-0.04Q193.33-0.04 193.33-3.4ZM199.17-23.04L198.69-22.36Q197.85-22.36 197.85-23.96L197.85-23.96Q197.85-24.92 198.37-25.98 198.89-27.04 199.85-27.04L199.85-27.04Q200.65-27.04 200.65-26.12L200.65-26.12Q200.65-25.2 199.17-23.04L199.17-23.04ZM199.33 12.52L199.33 12.52Q197.29 12.52 197.29 10.08L197.29 10.08Q197.29 8.36 198.37 5.36 199.45 2.36 200.53 0.16L200.53 0.16Q202.49-3.68 203.33-5.12L203.33-5.12Q204.25-13.72 204.97-17.44L204.97-17.44Q204.01-17.32 203.05-17.32 202.09-17.32 201.89-18.32L201.89-18.32Q201.89-19.12 202.37-19.24L202.37-19.24Q202.53-19 203.53-19 204.53-19 205.33-19.08L205.33-19.08Q207.93-31.04 214.21-31.04L214.21-31.04Q215.01-31.04 214.97-30.44L214.97-30.44Q214.93-30.04 214.69-30.04L214.69-30.04Q211.97-30.04 210.33-27.2 208.69-24.36 207.69-19.24L207.69-19.24Q212.45-19.6 213.49-19.6L213.49-19.6Q213.85-19.6 213.79-19.12 213.73-18.64 212.97-18.64 212.21-18.64 207.41-17.84L207.41-17.84Q206.89-14.88 206.31-9.24 205.73-3.6 205.37-0.64 205.01 2.32 204.53 4.56 204.05 6.8 203.37 8.68L203.37 8.68Q201.97 12.52 199.33 12.52ZM199.37 11.36L199.37 11.36Q200.61 11.36 201.25 9.28L201.25 9.28Q201.97 7 202.29 4.52L202.29 4.52Q202.77 0.8 203.13-3.12L203.13-3.12Q200.13 3.24 199.49 5.28L199.49 5.28Q198.41 8.72 198.41 10.04 198.41 11.36 199.37 11.36ZM215.41-24.6L215.41-24.6Q214.93-24.6 214.89-25.4L214.89-25.4Q214.89-27.92 215.75-30.04 216.61-32.16 217.89-32.16L217.89-32.16Q218.37-32.16 218.37-31.56L218.37-31.56Q218.09-31.12 217.85-30.76 217.61-30.4 217.35-29.92 217.09-29.44 216.81-28.84 216.53-28.24 216.29-27.64L216.29-27.64Q215.77-26.32 215.77-25.08L215.77-25.08Q215.77-24.6 215.41-24.6Z" opacity="1" transform="matrix(1,0,0,1,0,0)" fill="#e56d90" class="wordmark-text-0" data-fill-palette-color="primary" id="text-0"></path></svg></g></svg></g></svg></g></svg></g><g></g></svg></g></svg></g></svg></g></svg></g><defs></defs></svg><rect width="320" height="360" fill="none" stroke="none" visibility="hidden"></rect></g></svg></g></svg>