<svg xmlns="http://www.w3.org/2000/svg" version="1.1" xmlns:xlink="http://www.w3.org/1999/xlink" xmlns:svgjs="http://svgjs.dev/svgjs" width="2000" height="1500" viewBox="0 0 2000 1500"><rect width="2000" height="1500" fill="#1f2d5a"></rect><g transform="matrix(0.75,0,0,0.75,249.090909090909,340.4916015767304)"><svg viewBox="0 0 396 216" data-background-color="#1f2d5a" preserveAspectRatio="xMidYMid meet" height="1090" width="2000" xmlns="http://www.w3.org/2000/svg" xmlns:xlink="http://www.w3.org/1999/xlink"><g id="tight-bounds" transform="matrix(1,0,0,1,0.2400000000000091,0.20038417055195623)"><svg viewBox="0 0 395.52 215.5992316588961" height="215.5992316588961" width="395.52"><g><svg viewBox="0 0 503.1296420188842 274.25759568185396" height="215.5992316588961" width="395.52"><g transform="matrix(1,0,0,1,283.3953656240344,13.528797840926956)"><svg viewBox="0 0 219.73427639484981 247.20000000000005" height="247.20000000000005" width="219.73427639484981"><g id="textblocktransform"><svg viewBox="0 0 219.73427639484981 247.20000000000005" height="247.20000000000005" width="219.73427639484981" id="textblock"><g><svg viewBox="0 0 219.73427639484981 247.20000000000005" height="247.20000000000005" width="219.73427639484981"><rect width="219.73427639484981" height="247.20000000000005" x="0" y="0" opacity="1" fill="#fbfbfb" data-fill-palette-color="tertiary"></rect><g transform="matrix(1,0,0,1,23.607599999999998,23.607600000000012)"><svg width="172.5190763948498" viewBox="2.15 -34.6 30.15 34.95" height="199.98480000000004" data-palette-color="#1f2d5a"><path d="M17.1-34.6L17.1-34.6Q23.05-34.6 27.25-32.15 31.45-29.7 31.45-26.95L31.45-26.95Q31.45-26.2 31.13-25.68 30.8-25.15 30.33-24.93 29.85-24.7 29.3-24.7L29.3-24.7Q28.4-24.7 26.6-25.63 24.8-26.55 22.6-27.48 20.4-28.4 18.55-28.4L18.55-28.4Q15.6-28.4 15.6-26L15.6-26Q15.6-25.25 16.07-24.58 16.55-23.9 17.6-23.18 18.65-22.45 19.65-21.9 20.65-21.35 22.4-20.43 24.15-19.5 25.35-18.8L25.35-18.8Q29.2-16.6 30.75-14.6 32.3-12.6 32.3-10L32.3-10Q32.3 0.35 18.35 0.35L18.35 0.35Q15.6 0.35 13.03-0.2 10.45-0.75 8.53-1.65 6.6-2.55 5.13-3.65 3.65-4.75 2.9-5.9 2.15-7.05 2.15-8.05L2.15-8.05Q2.15-9.15 2.88-9.93 3.6-10.7 5-10.7L5-10.7Q6.05-10.7 10.05-9.38 14.05-8.05 16.5-8.05L16.5-8.05Q18.75-8.05 18.75-9.6L18.75-9.6Q18.75-10.05 18.57-10.43 18.4-10.8 17.98-11.18 17.55-11.55 17.03-11.88 16.5-12.2 15.58-12.7 14.65-13.2 13.73-13.7 12.8-14.2 11.3-15 9.8-15.8 8.4-16.6L8.4-16.6Q6.55-17.65 5.23-19.2 3.9-20.75 3.3-22.28 2.7-23.8 2.7-25.1L2.7-25.1Q2.7-29.3 6.45-31.95 10.2-34.6 17.1-34.6Z" opacity="1" transform="matrix(1,0,0,1,0,0)" fill="#1f2d5a" class="wordmark-text-0" data-fill-palette-color="quaternary" id="text-0"></path></svg></g></svg></g></svg></g></svg></g><g><svg viewBox="0 0 271.5915656240344 274.25759568185396" height="274.25759568185396" width="271.5915656240344"><g><svg xmlns="http://www.w3.org/2000/svg" xmlns:xlink="http://www.w3.org/1999/xlink" version="1.1" x="0" y="0" viewBox="0 0.22617931598913665 98.80392957027252 99.77382068401086" enable-background="new 0 0 100 100" xml:space="preserve" height="274.25759568185396" width="271.5915656240344" class="icon-icon-0" data-fill-palette-color="accent" id="icon-0"><polygon fill-rule="evenodd" clip-rule="evenodd" fill="#2f76db" points="55.205,52.05 55.676,55.314 28.943,82.046 25.208,82.046   " data-fill-palette-color="accent"></polygon><polygon fill-rule="evenodd" clip-rule="evenodd" fill="#2f76db" points="4.679,100 0,100 54.299,45.712 54.879,49.802 " data-fill-palette-color="accent"></polygon><polygon fill-rule="evenodd" clip-rule="evenodd" fill="#2f76db" points="8.325,89.102 8.325,84.785 49.156,43.953 52.9,44.533 " data-fill-palette-color="accent"></polygon><polygon fill-rule="evenodd" clip-rule="evenodd" fill="#2f76db" points="3.609,86.926 3.609,82.844 43.398,43.055 46.925,43.608   " data-fill-palette-color="accent"></polygon><path fill-rule="evenodd" clip-rule="evenodd" fill="#2f76db" d="M85.691 5.134c1.016-0.508 2.084-0.677 3.209-0.508 1.127 0.169 2.098 0.653 2.92 1.452 0.824 0.785 1.344 1.739 1.559 2.864 0.205 1.112 0.072 2.194-0.398 3.246l-6.291 13.747 10.572 10.754c0.785 0.821 1.277 1.796 1.469 2.92 0.182 1.111 0.023 2.183-0.473 3.21-0.506 1.015-1.262 1.802-2.266 2.357-1.004 0.544-2.068 0.756-3.193 0.635l-14.98-1.742-6.98 13.385c-0.533 0.992-1.301 1.753-2.305 2.286-1.027 0.52-2.098 0.7-3.209 0.544-1.125-0.169-2.105-0.642-2.938-1.414-0.834-0.786-1.359-1.736-1.578-2.848l-2.992-14.762-14.908-2.504c-1.113-0.193-2.073-0.689-2.884-1.487-0.822-0.811-1.33-1.771-1.523-2.884-0.193-1.123-0.049-2.2 0.436-3.228 0.483-1.027 1.221-1.825 2.212-2.395l13.167-7.437-2.25-14.924c-0.17-1.124 0.006-2.194 0.525-3.21 0.508-1.015 1.266-1.789 2.268-2.32 1.004-0.545 2.074-0.744 3.211-0.599 1.113 0.145 2.098 0.604 2.957 1.377L72.18 11.898 85.691 5.134z" data-fill-palette-color="accent"></path></svg></g></svg></g></svg></g><defs></defs></svg><rect width="395.52" height="215.5992316588961" fill="none" stroke="none" visibility="hidden"></rect></g></svg></g></svg>